<?xml version="1.0" encoding="utf-8"?>
<!-- Generator: Adobe Illustrator 23.0.4, SVG Export Plug-In . SVG Version: 6.00 Build 0)  -->
<svg version="1.1" x="0px" y="0px"
	 viewBox="0 0 100 100.8">
	<path d="M33,5.4H15c-5.5,0-10,4.5-10,10v18c0,5.5,4.5,10,10,10h18c5.5,0,10-4.5,10-10v-18C43,9.9,38.5,5.4,33,5.4z M39,33.4
	c0,3.3-2.7,6-6,6H15c-3.3,0-6-2.7-6-6v-18c0-3.3,2.7-6,6-6h18c3.3,0,6,2.7,6,6V33.4z M85,5.4H67c-5.5,0-10,4.5-10,10v18
	c0,5.5,4.5,10,10,10h18c5.5,0,10-4.5,10-10v-18C95,9.9,90.5,5.4,85,5.4z M91,33.4c0,3.3-2.7,6-6,6H67c-3.3,0-6-2.7-6-6v-18
	c0-3.3,2.7-6,6-6h18c3.3,0,6,2.7,6,6V33.4z M33,57.4H15c-5.5,0-10,4.5-10,10v18c0,5.5,4.5,10,10,10h18c5.5,0,10-4.5,10-10v-18
	C43,61.9,38.5,57.4,33,57.4z M39,85.4c0,3.3-2.7,6-6,6H15c-3.3,0-6-2.7-6-6v-18c0-3.3,2.7-6,6-6h18c3.3,0,6,2.7,6,6V85.4z M85,57.4
	H67c-5.5,0-10,4.5-10,10v18c0,5.5,4.5,10,10,10h18c5.5,0,10-4.5,10-10v-18C95,61.9,90.5,57.4,85,57.4z M91,85.4c0,3.3-2.7,6-6,6H67
	c-3.3,0-6-2.7-6-6v-18c0-3.3,2.7-6,6-6h18c3.3,0,6,2.7,6,6V85.4z"/>
</svg>